<?xml version="1.0" encoding="UTF-8" standalone="no"?>
<!DOCTYPE svg PUBLIC "-//W3C//DTD SVG 1.1//EN" "http://www.w3.org/Graphics/SVG/1.1/DTD/svg11.dtd">
<svg width="100%" height="100%" viewBox="0 0 2000 2000" version="1.1" xmlns="http://www.w3.org/2000/svg" xmlns:xlink="http://www.w3.org/1999/xlink" xml:space="preserve" xmlns:serif="http://www.serif.com/" style="fill-rule:evenodd;clip-rule:evenodd;stroke-linejoin:round;stroke-miterlimit:2;">
    <g transform="matrix(8.29091,0,0,8.29091,-879.58,91.2839)">
        <g transform="matrix(288,0,0,288,99.7616,208.674)">
            <path d="M0.416,-0.688C0.494,-0.688 0.555,-0.67 0.6,-0.635C0.644,-0.599 0.666,-0.55 0.666,-0.487C0.666,-0.439 0.655,-0.397 0.632,-0.361C0.609,-0.326 0.577,-0.299 0.536,-0.28C0.495,-0.26 0.446,-0.251 0.39,-0.251L0.198,-0.251L0.149,-0L0.022,-0L0.155,-0.688L0.416,-0.688ZM0.217,-0.349L0.374,-0.349C0.428,-0.349 0.469,-0.36 0.496,-0.381C0.524,-0.402 0.537,-0.435 0.537,-0.48C0.537,-0.516 0.526,-0.542 0.503,-0.561C0.481,-0.579 0.448,-0.588 0.405,-0.588L0.263,-0.588L0.217,-0.349Z" style="fill:rgb(119,187,101);fill-rule:nonzero;"/>
        </g>
        <g transform="matrix(288,0,0,288,270.255,208.674)">
            <path d="M0.268,-0.513L0.243,-0.387L0.117,-0.387L0.142,-0.513L0.268,-0.513ZM0.192,-0.125L0.167,-0L0.042,-0L0.067,-0.125L0.192,-0.125Z" style="fill:rgb(34,141,87);fill-rule:nonzero;"/>
        </g>
    </g>
</svg>
